<?xml version="1.0" encoding="utf-8"?>
<!-- Generator: Adobe Illustrator 24.0.2, SVG Export Plug-In . SVG Version: 6.00 Build 0)  -->
<svg version="1.1" id="Layer_1" xmlns="http://www.w3.org/2000/svg" xmlns:xlink="http://www.w3.org/1999/xlink" x="0px" y="0px"
	 viewBox="0 0 252 109" style="enable-background:new 0 0 252 109;" xml:space="preserve">
<style type="text/css">
	.st0{fill:#0A002F;}
	.st1{fill:url(#SVGID_1_);}
	.st2{fill:none;}
	.st3{font-family:'ArialMT';}
	.st4{font-size:21px;}
	.st5{font-size:8px;}
</style>
<path class="st0" d="M252,104.2h-53.1v0.5H252V104.2z"/>
<path class="st0" d="M55.6,104.2H2.5v0.5h53.1V104.2z"/>
<linearGradient id="SVGID_1_" gradientUnits="userSpaceOnUse" x1="96.6607" y1="80.6997" x2="151.4828" y2="80.6997" gradientTransform="matrix(1 0 0 -1 0 110)">
	<stop  offset="0" style="stop-color:#3399EB"/>
	<stop  offset="1" style="stop-color:#31F5FF"/>
</linearGradient>
<path class="st1" d="M135.2,40.9c-5.2,4.9-13,5.6-18.9,2.4c-6.1-3.3-7.8-9.7-8.1-10.8c-3.8,0.1-7.7-0.1-11.5,0
	C95.8,14.7,110.5,1,126.1,2.1c14.5,0.9,26.5,14.3,25.3,29.4c-1,13.7-13.1,24.1-26,25c-13,0.9-21.1-8.2-22.3-9.5
	c1.6-1.4,3.2-2.7,4.7-4.1c0.9,1,7.6,8.4,17.6,7.8c10.2-0.6,19.2-9.2,19.9-19.9c0.8-11.3-7.8-22-19.6-23c-11.2-0.9-21.4,7.3-23,18.6
	c1.8,0,3.6,0,5.4,0c1.6-7.7,8.3-13.1,15.9-13.2c0,1.9,0,3.8,0,5.7c-5.9,0-10.6,4.9-10.5,10.5c0.2,5.4,4.9,9.9,10.1,9.8
	c4.1-0.1,8-2.9,9.5-7.1c-3,0-6.1,0-9.1,0c0-1.9,0-6.1,0-6.1c5.3,0,10.6,0,15.9,0C140.1,26.7,141.4,35.1,135.2,40.9z"/>
<rect x="5.5" y="68.6" class="st2" width="243.6" height="33.8"/>
<text transform="matrix(1 0 0 1 31.1606 83.5234)" class="st3 st4">CONATUS GLOBAL</text>
<rect x="5.5" y="100" class="st2" width="243.6" height="33.8"/>
<text transform="matrix(1 0 0 1 65.3457 107.1018)" class="st3 st5">FAMILY OFFICE CONSORTIUM</text>
</svg>
