<svg id="Layer_1" data-name="Layer 1" xmlns="http://www.w3.org/2000/svg" viewBox="0 0 369.03 366.76"><defs><style>.cls-1{fill:#e3d5c8;}</style></defs><title>620a5104dc2558a10c5710ef_gold-logomark</title><path class="cls-1" d="M434.89,438.39c-34.67,32.82-87.59,37.54-127.3,15.91-41.37-22.53-52.66-65.08-54.55-72.74-25.76.76-51.53-.76-77.29,0C169.67,262.26,268.22,170.17,373.52,177,471.3,183.3,551.73,273.09,544,374.74c-7,92-87.9,162.18-175,168.22s-142.3-55-150-63.65L250.76,452c6.13,6.94,51.18,56.33,118.21,52.28,68.31-4.13,129.32-61.95,134.12-134.11C508.16,293.91,450.5,222,371.24,215.62c-75.13-6.06-143.84,48.83-154.57,125H253c11.06-51.5,56.09-88.34,106.84-88.65v38.64c-39.8-.15-71.58,32.79-70.47,70.47,1.07,36.52,32.69,66.4,68.19,65.93,27.87-.38,53.56-19.39,63.65-47.74H359.88V338.37H466.72C467.52,343.06,476.21,399.28,434.89,438.39Z" transform="translate(-175.48 -176.62)"/></svg>