<?xml version="1.0" encoding="utf-8"?>
<!-- Generator: Adobe Illustrator 24.0.2, SVG Export Plug-In . SVG Version: 6.00 Build 0)  -->
<svg version="1.1" id="Layer_1" xmlns="http://www.w3.org/2000/svg" xmlns:xlink="http://www.w3.org/1999/xlink" x="0px" y="0px"
	 viewBox="0 0 369 366.8" style="enable-background:new 0 0 369 366.8;" xml:space="preserve">
<style type="text/css">
	.st0{fill:#C9C9C9;}
</style>
<title>620a5104dc2558a10c5710ef_gold-logomark</title>
<path class="st0" d="M259.4,261.8c-34.7,32.8-87.6,37.5-127.3,15.9c-41.4-22.5-52.7-65.1-54.6-72.7c-25.8,0.8-51.5-0.8-77.3,0
	C-5.8,85.6,92.7-6.4,198,0.4c97.8,6.3,178.2,96.1,170.5,197.7c-7,92-87.9,162.2-175,168.2s-142.3-55-150-63.6l31.8-27.3
	c6.1,6.9,51.2,56.3,118.2,52.3c68.3-4.1,129.3-62,134.1-134.1C332.7,117.3,275,45.4,195.8,39C120.6,32.9,51.9,87.8,41.2,164h36.3
	c11.1-51.5,56.1-88.3,106.8-88.6V114c-39.8-0.1-71.6,32.8-70.5,70.5c1.1,36.5,32.7,66.4,68.2,65.9c27.9-0.4,53.6-19.4,63.6-47.7
	h-61.3v-40.9h106.8C292,166.4,300.7,222.7,259.4,261.8z"/>
</svg>
