<?xml version="1.0" encoding="utf-8"?>
<!-- Generator: Adobe Illustrator 24.0.2, SVG Export Plug-In . SVG Version: 6.00 Build 0)  -->
<svg version="1.1" id="Layer_1" xmlns="http://www.w3.org/2000/svg" xmlns:xlink="http://www.w3.org/1999/xlink" x="0px" y="0px"
	 viewBox="0 0 369 366.8" style="enable-background:new 0 0 369 366.8;" xml:space="preserve">
<style type="text/css">
	.st0{fill:#8A6745;}
</style>
<title>620a5104dc2558a10c5710ef_gold-logomark</title>
<g>
	<path class="st0" d="M186.3,51c2.6,0,5.3,0.1,7.9,0.3C264.9,55.8,323,120.7,317.4,194c-5.1,66.4-63.5,117.1-126.4,121.5
		c-2.9,0.2-5.8,0.3-8.7,0.3c-57.9,0-94.4-40.3-99.7-46.2l23-19.7c4.2,4.8,34.5,37.9,79.8,37.9c1.8,0,3.7-0.1,5.6-0.2
		c49.3-3,93.4-44.8,96.9-96.9c3.7-55.1-38-107-95.2-111.7c-2.8-0.2-5.5-0.3-8.2-0.3c-51,0-96.1,38.4-103.4,90.6h26.2
		c8-37.2,40.5-63.8,77.1-64v27.9c0,0-0.1,0-0.1,0c-28.7,0-51.6,23.7-50.8,50.9c0.8,26.1,23.2,47.6,48.6,47.6c0.2,0,0.4,0,0.6,0
		c20.2-0.3,38.7-14,45.9-34.5h-44.3v-29.5h77.1c0.7,3.3,6.9,44-22.9,72.2c-14.9,14.1-34.5,21-53.9,21c-13.2,0-26.4-3.2-38-9.5
		c-29.9-16.3-38.1-47-39.4-52.5c-3.9,0.1-7.9,0.2-11.8,0.2c-10.7,0-21.5-0.3-32.2-0.3c-3.9,0-7.9,0-11.8,0.2
		C47.2,115.8,113.4,51,186.3,51 M186.3,49c-35.9,0-71.5,15.7-97.5,43.1c-27.4,28.8-41.4,66.9-39.4,107l0.1,2l2-0.1
		c3.6-0.1,7.4-0.2,11.7-0.2c5.4,0,10.8,0.1,16.1,0.2c5.3,0.1,10.8,0.2,16.1,0.2c3.7,0,7.1,0,10.3-0.1c1.9,7.2,5,14.4,8.8,21.2
		c7.8,13.6,18.3,24,31.2,31.1c11.7,6.4,25.2,9.8,39,9.8c21,0,40.6-7.7,55.3-21.6c31.7-30,23.6-73.6,23.5-74.1l-0.3-1.6h-1.6h-77.1
		h-2v2v29.5v2h2h41.4c-7.5,18.1-24.5,30.2-43.1,30.5c-0.2,0-0.4,0-0.6,0c-24.5,0-45.9-20.9-46.6-45.7c-0.4-12.5,4.4-24.6,13.5-33.9
		c9.4-9.6,21.9-15,35.3-15l0.1,0l2,0v-2v-27.9v-2l-2,0c-18.2,0.1-36.2,6.7-50.6,18.6c-14,11.6-24,27.7-28.2,45.4H83.3
		c8.1-49.5,51.1-86.6,101.1-86.6c2.7,0,5.4,0.1,8.1,0.3c26.8,2.2,51.3,15,69.1,36.2c8.5,10.1,14.9,21.6,19.1,34.1
		c4.3,12.8,6.1,26,5.2,39.3c-1.6,24.4-12.5,47.7-30.6,65.6c-17.8,17.6-40.7,28-64.3,29.4c-1.8,0.1-3.6,0.2-5.4,0.2
		c-43.2,0-72.8-31-78.3-37.3l-1.3-1.5l-1.5,1.3l-23,19.7l-1.5,1.3l1.4,1.5c8.5,9.5,19.1,18.4,30.5,25.7
		c22.1,14.1,45.9,21.2,70.6,21.2c2.9,0,5.9-0.1,8.8-0.3c31.6-2.2,62.2-15.7,86.1-38c24.7-23,39.7-53.4,42.1-85.3
		c1.4-18.1-1-36-7-53.3c-5.8-16.5-14.6-31.7-26.3-45.1c-11.7-13.4-25.4-24.3-41-32.3c-16.1-8.3-33.1-13.1-50.7-14.2
		C191.7,49.1,189,49,186.3,49L186.3,49z"/>
</g>
</svg>
